# xmcd CD database file
#
# Track frame offsets:
#	183
#	14658
#	29878
#	49990
#	66735
#	77645
#	93718
#	109865
#	125860
#	140808
#	158760
#	176698
#	190803
#	206070
#	222150
#	237305
#	252415
#	267830
#	281698
#	291503
#
# Disc length: 4098 seconds
#
# Revision: 0
# Processed by: cddbd v1.4PL0 Copyright (c) Steve Scherf et al.
# Submitted via: CDex 1.50beta9
#
DISCID=51100014
DTITLE=Jazz à cordes Quintet - Djangology
DYEAR=2003
DGENRE=Jazz
TTITLE0=Djangology
TTITLE1=Minor Swing
TTITLE2=Nuages
TTITLE3=All of me
TTITLE4=New year
TTITLE5=Douce ambiance
TTITLE6=Manoir de mes rêves
TTITLE7=Swing 42
TTITLE8=Lover man
TTITLE9=Wizen Swing
TTITLE10=Honeysuckle Rose
TTITLE11=Songe d'Automne
TTITLE12=Bonjour Gipsy
TTITLE13=My world
TTITLE14=Sweet Georgia Brown
TTITLE15=R-26
TTITLE16=Où es-tu mon amour?
TTITLE17=Djangology (2)
TTITLE18=Charlette
TTITLE19=Ol'man River
EXTD=YEAR: 2003
EXTT0=
EXTT1=
EXTT2=
EXTT3=
EXTT4=
EXTT5=
EXTT6=
EXTT7=
EXTT8=
EXTT9=
EXTT10=
EXTT11=
EXTT12=
EXTT13=
EXTT14=
EXTT15=
EXTT16=
EXTT17=
EXTT18=
EXTT19=
PLAYORDER=
